<svg xmlns="http://www.w3.org/2000/svg" viewBox="0 0 256 256" fill="none"><g stroke="#37306B" stroke-width="8" stroke-linecap="round" stroke-linejoin="round"><rect x="54" y="54" width="150" height="126" rx="10" fill="#FFFFFF" stroke="#37306B"/><rect x="56" y="56" width="24" height="24" fill="#37306B" stroke="none"/><rect x="80" y="56" width="24" height="24" fill="#FFFFFF" stroke="none"/><rect x="104" y="56" width="24" height="24" fill="#37306B" stroke="none"/><rect x="128" y="56" width="24" height="24" fill="#FFFFFF" stroke="none"/><rect x="152" y="56" width="24" height="24" fill="#37306B" stroke="none"/><rect x="176" y="56" width="24" height="24" fill="#FFFFFF" stroke="none"/><rect x="56" y="80" width="24" height="24" fill="#FFFFFF" stroke="none"/><rect x="80" y="80" width="24" height="24" fill="#37306B" stroke="none"/><rect x="104" y="80" width="24" height="24" fill="#FFFFFF" stroke="none"/><rect x="128" y="80" width="24" height="24" fill="#37306B" stroke="none"/><rect x="152" y="80" width="24" height="24" fill="#FFFFFF" stroke="none"/><rect x="176" y="80" width="24" height="24" fill="#37306B" stroke="none"/><rect x="56" y="104" width="24" height="24" fill="#37306B" stroke="none"/><rect x="80" y="104" width="24" height="24" fill="#FFFFFF" stroke="none"/><rect x="104" y="104" width="24" height="24" fill="#37306B" stroke="none"/><rect x="128" y="104" width="24" height="24" fill="#FFFFFF" stroke="none"/><rect x="152" y="104" width="24" height="24" fill="#37306B" stroke="none"/><rect x="176" y="104" width="24" height="24" fill="#FFFFFF" stroke="none"/><rect x="56" y="128" width="24" height="24" fill="#FFFFFF" stroke="none"/><rect x="80" y="128" width="24" height="24" fill="#37306B" stroke="none"/><rect x="104" y="128" width="24" height="24" fill="#FFFFFF" stroke="none"/><rect x="128" y="128" width="24" height="24" fill="#37306B" stroke="none"/><rect x="152" y="128" width="24" height="24" fill="#FFFFFF" stroke="none"/><rect x="176" y="128" width="24" height="24" fill="#37306B" stroke="none"/><rect x="56" y="152" width="24" height="24" fill="#37306B" stroke="none"/><rect x="80" y="152" width="24" height="24" fill="#FFFFFF" stroke="none"/><rect x="104" y="152" width="24" height="24" fill="#37306B" stroke="none"/><rect x="128" y="152" width="24" height="24" fill="#FFFFFF" stroke="none"/><rect x="152" y="152" width="24" height="24" fill="#37306B" stroke="none"/><rect x="176" y="152" width="24" height="24" fill="#FFFFFF" stroke="none"/><rect x="54" y="54" width="150" height="126" rx="10" fill="none"/></g></svg>