<svg xmlns="http://www.w3.org/2000/svg" viewBox="0 0 256 256" fill="none"><g stroke="#37306B" stroke-width="8" stroke-linecap="round" stroke-linejoin="round"><path d="M150 60 q-12 -2 -12 14 M132 56 q-12 -2 -12 14 M114 60 q-12 0 -12 14 M168 76 q-12 -4 -12 12" stroke="#F6C9A0" stroke-width="18"/><path d="M96 92 q-26 4 -26 40 v22 q0 46 44 52 q44 4 50 -40 l4 -52 q2 -18 -16 -18 q-14 0 -14 16 Z" fill="#F6C9A0"/><path d="M188 60 q18 8 18 30 M196 96 q14 8 14 26" stroke="#5AA9E6" fill="none" stroke-width="8"/></g></svg>