<svg xmlns="http://www.w3.org/2000/svg" viewBox="0 0 256 256" fill="none"><g stroke="#37306B" stroke-width="8" stroke-linecap="round" stroke-linejoin="round"><path d="M128 128 L200 128 L190 164 Z" fill="#F6B43C"/><path d="M128 128 L190 164 L164 190 Z" fill="#E89A1C"/><path d="M128 128 L164 190 L128 200 Z" fill="#F6B43C"/><path d="M128 128 L128 200 L92 190 Z" fill="#E89A1C"/><path d="M128 128 L92 190 L66 164 Z" fill="#F6B43C"/><path d="M128 128 L66 164 L56 128 Z" fill="#E89A1C"/><path d="M128 128 L56 128 L66 92 Z" fill="#F6B43C"/><path d="M128 128 L66 92 L92 66 Z" fill="#E89A1C"/><path d="M128 128 L92 66 L128 56 Z" fill="#F6B43C"/><path d="M128 128 L128 56 L164 66 Z" fill="#E89A1C"/><path d="M128 128 L164 66 L190 92 Z" fill="#F6B43C"/><path d="M128 128 L190 92 L200 128 Z" fill="#E89A1C"/><circle cx="128" cy="128" r="34" fill="#FFD66B"/><path d="M108 156 l-12 48 l32 -20 l32 20 l-12 -48" fill="#E14B4B"/></g></svg>