<svg xmlns="http://www.w3.org/2000/svg" viewBox="0 0 256 256" fill="none"><g stroke="#37306B" stroke-width="8" stroke-linecap="round" stroke-linejoin="round"><path d="M128 128 L224 128" stroke="#FFB020" stroke-width="6"/><path d="M128 128 L211 176" stroke="#FFB020" stroke-width="6"/><path d="M128 128 L176 211" stroke="#FFB020" stroke-width="6"/><path d="M128 128 L128 224" stroke="#FFB020" stroke-width="6"/><path d="M128 128 L80 211" stroke="#FFB020" stroke-width="6"/><path d="M128 128 L45 176" stroke="#FFB020" stroke-width="6"/><path d="M128 128 L32 128" stroke="#FFB020" stroke-width="6"/><path d="M128 128 L45 80" stroke="#FFB020" stroke-width="6"/><path d="M128 128 L80 45" stroke="#FFB020" stroke-width="6"/><path d="M128 128 L128 32" stroke="#FFB020" stroke-width="6"/><path d="M128 128 L176 45" stroke="#FFB020" stroke-width="6"/><path d="M128 128 L211 80" stroke="#FFB020" stroke-width="6"/><polygon points="128,60 146,106 195,108 157,139 169,187 128,160 87,187 99,139 61,108 110,106" fill="#FFC83D"/></g></svg>