<svg xmlns="http://www.w3.org/2000/svg" viewBox="0 0 256 256" fill="none"><g stroke="#37306B" stroke-width="8" stroke-linecap="round" stroke-linejoin="round"><circle cx="74" cy="92" r="15" fill="#7A4A2B"/><circle cx="182" cy="92" r="15" fill="#7A4A2B"/><path d="M84 80 q4 -44 44 -44 q40 0 44 44 q-44 -20 -88 0 Z" fill="#7A4A2B"/><circle cx="128" cy="92" r="46" fill="#F6C9A0"/><circle cx="112" cy="92" r="6" fill="#37306B" stroke="none"/><circle cx="144" cy="92" r="6" fill="#37306B" stroke="none"/><path d="M112 108 q16 14 32 0" fill="none"/><path d="M96 148 L160 148 L188 216 H68 Z" fill="#EC4899"/><path d="M98 156 L62 108 M158 156 L194 108" stroke="#F6C9A0" stroke-width="16"/><path d="M112 214 V242 M144 214 V242" stroke="#37306B" stroke-width="14"/><polygon points="128,10 133,24 147,24 136,32 140,46 128,38 116,46 120,32 109,24 123,24" fill="#FFC83D"/></g></svg>