<svg xmlns="http://www.w3.org/2000/svg" viewBox="0 0 256 256" fill="none"><g stroke="#37306B" stroke-width="8" stroke-linecap="round" stroke-linejoin="round"><path d="M64 78 q-18 -22 -2 -40 q22 8 24 34 Z" fill="#E7E2DA"/><path d="M192 78 q18 -22 2 -40 q-22 8 -24 34 Z" fill="#E7E2DA"/><ellipse cx="56" cy="128" rx="22" ry="30" fill="#F4D7E0"/><ellipse cx="200" cy="128" rx="22" ry="30" fill="#F4D7E0"/><circle cx="128" cy="132" r="92" fill="#F4EEE6"/><path d="M84 92 q22 -6 30 14 q-20 12 -34 -2 Z" fill="#37306B" stroke="none"/><path d="M176 150 q-18 -10 -4 -26 q22 4 18 24 Z" fill="#37306B" stroke="none"/><circle cx="104" cy="120" r="8" fill="#37306B" stroke="none"/><circle cx="152" cy="120" r="8" fill="#37306B" stroke="none"/><ellipse cx="128" cy="168" rx="44" ry="30" fill="#F4B8C6"/><circle cx="114" cy="166" r="6" fill="#37306B" stroke="none"/><circle cx="142" cy="166" r="6" fill="#37306B" stroke="none"/></g></svg>