<svg xmlns="http://www.w3.org/2000/svg" viewBox="0 0 256 256" fill="none"><g stroke="#37306B" stroke-width="8" stroke-linecap="round" stroke-linejoin="round"><circle cx="224" cy="128" r="26" fill="#C9772E"/><circle cx="212" cy="174" r="26" fill="#C9772E"/><circle cx="179" cy="208" r="26" fill="#C9772E"/><circle cx="134" cy="223" r="26" fill="#C9772E"/><circle cx="89" cy="215" r="26" fill="#C9772E"/><circle cx="52" cy="185" r="26" fill="#C9772E"/><circle cx="33" cy="141" r="26" fill="#C9772E"/><circle cx="39" cy="95" r="26" fill="#C9772E"/><circle cx="66" cy="56" r="26" fill="#C9772E"/><circle cx="108" cy="35" r="26" fill="#C9772E"/><circle cx="155" cy="36" r="26" fill="#C9772E"/><circle cx="196" cy="61" r="26" fill="#C9772E"/><circle cx="220" cy="102" r="26" fill="#C9772E"/><circle cx="128" cy="130" r="78" fill="#F6B65C"/><circle cx="104" cy="122" r="9" fill="#37306B" stroke="none"/><circle cx="152" cy="122" r="9" fill="#37306B" stroke="none"/><path d="M128 146 l-10 8 h20 z" fill="#37306B" stroke="none"/><path d="M128 154 v8 M128 162 q-14 10 -26 2 M128 162 q14 10 26 2" /></g></svg>