<svg xmlns="http://www.w3.org/2000/svg" viewBox="0 0 256 256" fill="none"><g stroke="#37306B" stroke-width="8" stroke-linecap="round" stroke-linejoin="round"><g stroke="#4FB6F2" stroke-width="8"><path d="M128 128 L214 128"/><path d="M178 128 l11 13 M178 128 l11 -13"/><path d="M128 128 L171 202"/><path d="M153 171 l-6 16 M153 171 l17 3"/><path d="M128 128 L86 202"/><path d="M104 171 l-17 3 M104 171 l6 16"/><path d="M128 128 L42 128"/><path d="M78 128 l-11 -13 M78 128 l-11 13"/><path d="M128 128 L85 54"/><path d="M103 85 l6 -16 M103 85 l-17 -3"/><path d="M128 128 L171 54"/><path d="M153 85 l17 -3 M153 85 l-6 -16"/></g></g></svg>